<svg height="72" viewBox="0 0 97 72" width="97" xmlns="http://www.w3.org/2000/svg" xmlns:xlink="http://www.w3.org/1999/xlink"><mask id="a" fill="#fff"><path d="m0 .15870208h14.8712857v16.83000002h-14.8712857z" fill="#fff" fill-rule="evenodd"/></mask><mask id="b" fill="#fff"><path d="m.15175183.00001843h17.70299367v16.99998157h-17.70299367z" fill="#fff" fill-rule="evenodd"/></mask><g fill="none" fill-rule="evenodd"><g fill="#b5121b"><path d="m10.0409286 12.1720354c0-.9821041-.6839286-1.5657708-3.0414286-2.47668748-2.52142857-1.00477084-4.24214286-2.12641667-4.24214286-4.39308334 0-3.08691666 2.805-5.1435625 6.34107143-5.1435625 2.54428573 0 4.02964283.79545834 5.11357143 1.61358334.3764286.28014583.6592857.6300625.6592857 1.2165625 0 .7936875-.6360714 1.40072916-1.4128571 1.40072916-.3303572 0-.6367857-.09420833-.8492857-.3028125-1.1078572-.911625-2.2153572-1.37947916-3.72321433-1.37947916-1.93285714 0-3.06428571 1.05222916-3.06428571 2.15085416 0 1.05116667.82464285 1.56470834 3.20607143 2.5000625 2.52142861.98104167 4.10035711 2.10233334 4.10035711 4.39520832 0 3.2009584-2.9460714 5.2352917-6.43499997 5.2352917-2.14392857 0-4.47714286-.561-6.12607143-2.1041042-.30714286-.2581875-.56714286-.70125-.56714286-1.1935416 0-.8167084.59035715-1.4488959 1.415-1.4488959.40035715 0 .75392857.1880625.96607143.374 1.36678572 1.2629584 2.56857143 1.82325 4.47785714 1.82325 1.83821429 0 3.18214289-.9105625 3.18214289-2.267375" mask="url(#a)" transform="translate(0 35)"/><path d="m27.8291247 39c.9031289 0 1.3817587.6764198 1.0811906 1.8285795l-2.5323933 9.7615069c-.2304118.896247-.8326164 1.4099136-1.5413019 1.4099136-.9027727 0-1.4163026-.6771562-1.1150223-1.8329982l1.5227835-5.9132417-3.0459231 3.4248123c-.4604675.5302366-.9380289.8410141-1.4878834.8410141-.6196547 0-.9205789-.3277157-1.1695092-1.025124l-1.1858908-3.2219232-1.6467144 6.3175471c-.2304118.896247-.8155225 1.4099136-1.5234958 1.4099136-.9027727 0-1.3981403-.6771562-1.0965038-1.8329982l2.5309688-9.7386772c.2304118-.8988245.7264916-1.4283246 1.5587519-1.4283246h.1598994c.7076171 0 1.1157345.4197706 1.3814026 1.152528l1.8771262 5.1274607 4.3739072-5.4028891c.4782737-.5681632.9380289-.8770996 1.6118143-.8770996z"/><path d="m29 46.4330593c0-3.7535415 3.2109534-7.4330593 7.9542432-7.4330593 3.6456157 0 6.0457568 2.4048664 6.0457568 5.5665796 0 3.7542637-3.2124732 7.4334204-7.9542432 7.4334204-3.6467555 0-6.0457568-2.4070329-6.0457568-5.5669407m10.9763617-1.6862952c0-1.8690073-1.1900019-3.1960169-3.3625532-3.1960169-2.777811 0-4.5901702 2.530165-4.5901702 4.7032109 0 1.867924 1.188862 3.1971002 3.3625532 3.1971002 2.7770511 0 4.5901702-2.5323316 4.5901702-4.7042942"/><path d="m44 46.4330593c0-3.7535415 3.2110719-7.4330593 7.9535957-7.4330593 3.6472184 0 6.0464043 2.4048664 6.0464043 5.5665796 0 3.7542637-3.2118318 7.4334204-7.9543555 7.4334204-3.6464586 0-6.0456445-2.4070329-6.0456445-5.5669407m10.9773677-1.6862952c0-1.8690073-1.1910448-3.1960169-3.3641791-3.1960169-2.776825 0-4.5901764 2.530165-4.5901764 4.7032109 0 1.867924 1.1906649 3.1971002 3.3626594 3.1971002 2.7775848 0 4.5916961-2.5323316 4.5916961-4.7042942"/><path d="m62.7561673 50.5822154c-.2201504.9012504-.7781823 1.4177846-1.4553064 1.4177846-.8625677 0-1.3365545-.6809365-1.0486917-1.8436014l2.1140563-8.5418838h-2.1650958c-.6604512 0-1.2011297-.5883677-1.2011297-1.3070723 0-.7190748.5406785-1.3074425 1.2011297-1.3074425h7.5974004c.6597706 0 1.2014699.5883677 1.2014699 1.3074425 0 .7187046-.5416993 1.3070723-1.2014699 1.3070723h-2.8252067z"/><path d="m79.1668083 50.5941878c-.2467364.8936398-.8748624 1.4058122-1.6357288 1.4058122-.9708793 0-1.502606-.6751864-1.1801272-1.8280332l.9712619-3.4119126h-5.3272124l-1.0841103 3.8341336c-.2475015.8936398-.875245 1.4058122-1.6361114 1.4058122-.9708793 0-1.5029884-.6751864-1.1805096-1.8280332l2.7404961-9.7657874c.2467365-.8958428.8748625-1.4061794 1.6353464-1.4061794.9701142 0 1.5026059.6762878 1.1797445 1.825096l-.9318605 3.3421543h5.3260648l1.0458565-3.7610709c.2467365-.8958428.8760101-1.4061794 1.6361114-1.4061794.9701143 0 1.502606.6762878 1.1793621 1.825096z"/><path d="m83.5320626 50.5941878c-.2144611.8936398-.7606043 1.4058122-1.4243014 1.4058122-.8431918 0-1.3077465-.6751864-1.0246845-1.8280332l2.3833821-9.7657874c.2157932-.8958428.7616033-1.4061794 1.4249675-1.4061794.8431917 0 1.3080795.6762878 1.0260165 1.825096z"/><path d="m86.1889427 52c-.9049673 0-1.4029671-.6879255-1.1002403-1.857623l2.4853579-9.7131202c.229901-.9093912.8164341-1.4292568 1.5257714-1.4292568h6.6756958c.6739953 0 1.2244725.576259 1.2244725 1.2821109 0 .705105-.5504772 1.2615703-1.2244725 1.2615703h-5.7700145l-.6736384 2.6560947h4.313142c.6743524 0 1.2244726.5572122 1.2244726 1.2623172 0 .7073458-.5501202 1.2451378-1.2244726 1.2451378h-4.9710729l-.7089803 2.7494613h5.2188233c.6739954 0 1.2248296.5751386 1.2248296 1.2791233 0 .7080927-.5508342 1.2641845-1.2248296 1.2641845z"/></g><path d="m30.9662991 16.178073c1.7892168-.6690251 5.4785584 5.9909976 8.7911069 5.4938723 5.3364347-.8023202 5.2703306-11.97143358 8.959305-12.2686162 3.69889-.29900359 5.1021325 15.0408639 8.6313554 15.7918327 3.4991088.7436849 9.6225492-9.9803829 11.7812144-9.1241619 1.9023282.7520614-.8857946 12.9879001 1.1531488 13.3539154 2.044452.3667438 4.2677522-3.4908031 4.6368333-1.4684317.3716518 2.0201862-.5582122 5.8813751-2.4094934 6.4309444-1.8520157.5550323-2.7826141-2.0169085-7.2284801-2.7529453-4.4506402-.7342159-6.0753314 4.7651193-9.2865202 4.3422896-4.5861535-.5987356-6.773831-11.2215573-9.5828868-10.5474335-2.8490854.6850496.0470074 8.5727716-3.6114857 9.3241046-3.1285588.5459274-6.2776832-7.4015225-8.4907006-6.4316728-1.8975541.8336409-.5277309 5.4610947-2.2324814 4.2902098-1.7014453-1.1679714-3.9607356-15.2145846-1.1109156-16.4339074zm-2.9383033-5.8868985c-.1936478-1.38414282.6380262-2.57853869 1.853383-2.66078642 1.2135503-.08477289 2.3570117.97001826 2.5502982 2.35343963.1911188 1.38414289-.3836828 4.11419059-1.6044588 4.20148859-1.2222211.0815263-2.6095487-2.5143278-2.7992224-3.8941418zm18.5682675-8.31030695c.1146941-1.30522992 1.3606725-2.17611689 2.7894333-1.94317114 1.4189299.2333126 2.4883158 1.48571703 2.3739858 2.78911273-.1099607 1.30559677-1.5991634 4.31188098-3.0290165 4.07636732-1.4254839-.23184523-2.249825-3.61267687-2.1344026-4.92230891zm22.2270863 7.5303025c.5069603-1.29824041 1.7295634-1.77925744 2.9592595-1.41054994 1.2278294.37087424 1.8986745 1.59977887 1.4884026 2.75104189-.405419 1.1487351-2.2932674 3.73691-3.6689292 3.2826162-1.2233497-.4040977-1.1897515-3.4722063-.7787329-4.62310815z" fill="#e31b23"/><path d="m3.18088837 15.5627595c-.24747061.9094783-.89304613 1.4375625-1.68740082 1.4375625-.99359265 0-1.58982245-.6944522-1.2418053-1.8923017l3.79850693-13.67187049c.27455511-.91055166.91901755-1.43613138 1.71374327-1.43613138.99210857 0 1.56385102.69695663 1.24069224 1.89122832l-1.86252245 6.67976403 10.05725016-8.01893686c.3710205-.31091136.7431539-.55205549 1.2644376-.55205549.8700429 0 1.3909555.57423788 1.3909555 1.31663265 0 .43148342-.1732665.81430868-.545771 1.10232207l-6.4550131 5.05293559 3.5744106 7.22931506c.1747507.3588539.2496968.6711964.2496968.9821078 0 .8132353-.7461221 1.3169904-1.5137633 1.3169904-.8206971 0-1.2918931-.4547392-1.5660771-1.028977l-3.25162289-6.8489943-4.29641633 3.3048195z" fill="#e31b23" mask="url(#b)" transform="translate(26 55)"/><path d="m57.2390088 60.4071766c.2369594-.8928318.8221717-1.4071766 1.5544242-1.4071766.9294116 0 1.4243361.6770795 1.1140409 1.8261633l-2.6504076 9.8215186c-.2196389.8203008-.6766057 1.3147639-1.5172035 1.3147639h-.0541727c-.8955076 0-1.2784016-.3644963-1.6067543-1.0577756l-3.4191438-7.3933841-1.898992 7.0808009c-.2369594.8976182-.8240143 1.407913-1.5536872 1.407913-.9316227 0-1.4247046-.6778159-1.1144094-1.8257951l2.6135554-9.731315c.2365909-.8946727.8210662-1.4071766 1.6616641-1.4071766h.128614c.8221718 0 1.3336798.4215639 1.643238 1.1159477l3.2536775 7.0819055z" fill="#e31b23"/><path d="m70.9372829 69.7908591c-.1824471.6479425-.493011 1.0941023-1.1324937 1.4366635-.6949143.358444-2.1555926.7724774-3.7990851.7724774-2.919154 0-6.0057041-1.7081135-6.0057041-5.4578775 0-3.9140057 3.3769237-7.5421225 7.9784825-7.5421225 2.1372377 0 3.688956.702449 4.4550871 1.4005664.2922091.2508747.5664304.5764703.5664304 1.1143167 0 .7544288-.6207607 1.3633865-1.3872589 1.3633865-.4023381 0-.6754582-.1429444-.875893-.2848059-.8402847-.6472206-1.6078842-1.0619759-2.976054-1.0619759-2.7396437 0-4.8390704 2.2997445-4.8390704 4.920392 0 1.9568224 1.4606782 3.0177154 3.2689972 3.0177154.9852879 0 1.7139751-.2375188 2.2800384-.4869496l.6031401-2.0441772h-1.5689718c-.6750911 0-1.224268-.5219637-1.224268-1.1868718 0-.6631032.5491769-1.2023935 1.224268-1.2023935h3.3031372c.9320589 0 1.4434248.6818737 1.1321267 1.7781418z" fill="#e31b23"/><path d="m44.482251 70.6390434c-.2108657.8662247-.7461905 1.3609566-1.3957615 1.3609566-.8264893 0-1.2818418-.6531313-1.0056925-1.7647686l1.4359109-5.8753403c.2108657-.8637386.7468434-1.3598911 1.3967407-1.3598911.8271421 0 1.2818418.6541968 1.0056926 1.7637031z" fill="#e31b23"/><path d="m45.1595801 58.9864212c.3154462-.8352391 1.0758304-1.1469714 1.8406099-.9087673.7630891.2392206 1.1799649 1.0314272.9247003 1.7738243-.2515455.7390088-1.4257627 2.4074541-2.2811527 2.114358-.7607224-.2612452-.7394221-2.2373567-.4841575-2.979415" fill="#e31b23"/><path d="m74 70.9969419c0 .559633-.4388788 1.0030581-.997512 1.0030581-.5573064 0-1.002488-.4434251-1.002488-1.0030581 0-.5592932.4451816-.9969419 1.0091226-.9969419.5519986 0 .9908774.4376487.9908774.9969419zm-1.7505391 0c0 .4441047.3260906.796806.7596617.796806.4209653.0057764.7417482-.3527013.7417482-.7906898 0-.4437649-.3207829-.8025824-.7540222-.8025824-.4212971 0-.7473877.3588175-.7473877.7964662zm.5991044.5164798h-.2252447v-.9966021c.0885719-.0118927.2136341-.0305811.373528-.0305811.1844418 0 .2670426.0305811.3323934.0791709.0593797.0424737.1008459.1151886.1008459.2127082 0 .1216445-.0889036.2004757-.2013601.2371729v.0122324c.0948748.0305811.1423122.1094122.1715044.2432892.0298557.1518858.0537403.2062521.071322.2426096h-.237187c-.0295239-.0363575-.0474374-.1213048-.0772931-.2426096-.0175816-.1036357-.0769613-.1522256-.2016918-.1522256h-.106817zm.0059711-.5589535h.1068171c.1243987 0 .2255763-.0428134.2255763-.1461094 0-.0910635-.065019-.1518858-.2076629-.1518858-.0593797 0-.1008459.006456-.1247305.0122324z" fill="#e31b23"/></g></svg>